<svg xmlns="http://www.w3.org/2000/svg" width="430" height="430" fill="none" viewBox="0 0 430 430"><g stroke-linecap="round" stroke-linejoin="round" stroke-miterlimit="10" stroke-width="12"><path stroke="#08a88a" d="m287.301 268 24.7 8.1 30.9-93.8-27.2-8.9c-5.9-22.1-19.7-41.3-38.8-53.9l-39.9-26.3q-2.85-1.8-6-1.8c-3.4 0-6.7 1.6-8.8 4.5-9.2 12.5-6.3 30 6.4 38.9l14.5 10.1-16.9-5.6-13.9-4.6m4.299 33.8-13.9-4.6-11.3-3.7"/><path stroke="#08a88a" d="M125.899 137.8c-4.2-3.1-6.7-8-6.7-13.1 0-1.7.3-3.4.8-5.1 2.5-7.6 10.7-11.7 18.3-9.2l73.9 24.3 13.9 4.6m-76.599 7.1-7-2.3m-19.299 26-.4-.1M97.5 182.7v.4c.2 4 1.9 7.8 4.7 10.6m114.4-25.2-13.9-4.6-11.3-3.7m-68.199 9.9-.4-.1m1.9-31.801-10.7-3.5c-8.1-2.7-16.8 1.701-19.4 9.801-.5 1.6-.8 3.2-.8 4.8 0 6.5 4.1 12.5 10.6 14.6l6.4 2.1m38.699-19.6-7-2.3"/><path stroke="#121331" d="m221.1 202.5 8.4 12 10.3 14.6-5.6-16.8c-4.9-14.7 3.3-30.5 18.1-35 1.1-.3 2.1-.5 3.2-.5 4.5 0 8.7 2.8 10.3 7.2l16.2 44.8c4.6 12.6 6.3 26 5.3 39.2-.7 9.3-2.8 18.4-6.3 27.2l16.5 23.4-80.8 56.8-16.5-23.4s-28.1-5.6-46-31.1c-9.8-13.9-18.9-26.9-25.2-35.8l-5-7.1-.7-1-1.4-2-.4-.6-.9-1.3"/><path stroke="#121331" d="m204.401 232.2-16.5-23.5-15.8-22.5-19.8-28.2c-2-2.8-3-6.1-3-9.3 0-.8 0-1.5.2-2.3.6-4.3 2.9-8.4 6.7-11.1 6.5-4.6 15.6-3 20.2 3.5l15 21.3 8.5 12.1 21.2 30.2 8.4 12M179.3 249.8l-8.4-12-18-25.7-28.2-40.1q-.75-1.2-1.8-2.1c-3.2-3.1-7.7-4.5-12-4-2.2.3-4.4 1.1-6.4 2.5-4.5 3.2-6.9 8.2-6.9 13.3v1.3c.2 2.8 1.2 5.6 2.9 8.1l1.8 2.5 12.7 18 39.3 55.8m-.1.1-39.3-55.8c-4.9-6.9-14.5-8.6-21.4-3.7-4.3 3-6.5 7.8-6.5 12.6 0 3.1.9 6.1 2.8 8.8l30.8 43.8.9 1.3.4.6 1.4 2 .7 1 5 7.1"/><path stroke="#121331" d="m204.4 232.2-16.5-23.5-15.8-22.5-19.8-28.2-9.8-13.9-.2-.2c-3.8-5.4-10.4-7.6-16.4-6-.4.1-.9.2-1.3.4-1.3.5-2.5 1.1-3.7 1.9-4.3 3-6.5 7.8-6.5 12.6 0 3.1.9 6.1 2.8 8.8l6 8.6 1.4 1.9 28.2 40.1 18 25.7 8.4 12m.499-168.1 5.5-27.8M153.8 88 135 67.2"/></g></svg>